<?xml version="1.0" standalone="no"?><!DOCTYPE svg PUBLIC "-//W3C//DTD SVG 1.1//EN" "http://www.w3.org/Graphics/SVG/1.1/DTD/svg11.dtd"><svg xmlns:xlink="http://www.w3.org/1999/xlink" xmlns="http://www.w3.org/2000/svg" version="1.1" width="1605" height="400"><defs><clipPath id="highcharts-13"><rect rx="0" ry="0" fill="none" x="0" y="0" width="9999" height="400" stroke-width="0.000001"></rect></clipPath><clipPath id="highcharts-14"><rect fill="none" x="0" y="0" width="1239" height="328"></rect></clipPath></defs><rect rx="5" ry="5" fill="#FFFFFF" x="0" y="0" width="1605" height="400" stroke-width="0.000001"></rect><path fill="none" d="M 67 313.5 L 1306 313.5" stroke="#808080" stroke-width="1"></path><g class="highcharts-grid" ></g><g class="highcharts-grid" ><path fill="none" d="M 67 313.5 L 1306 313.5" stroke="#C0C0C0" stroke-width="1" ></path><path fill="none" d="M 67 259.5 L 1306 259.5" stroke="#C0C0C0" stroke-width="1" ></path><path fill="none" d="M 67 204.5 L 1306 204.5" stroke="#C0C0C0" stroke-width="1" ></path><path fill="none" d="M 67 149.5 L 1306 149.5" stroke="#C0C0C0" stroke-width="1" ></path><path fill="none" d="M 67 95.5 L 1306 95.5" stroke="#C0C0C0" stroke-width="1" ></path><path fill="none" d="M 67 40.5 L 1306 40.5" stroke="#C0C0C0" stroke-width="1" ></path><path fill="none" d="M 67 368.5 L 1306 368.5" stroke="#C0C0C0" stroke-width="1" ></path></g><g class="highcharts-axis" ><path fill="none" d="M 376.5 368 L 376.5 373" stroke="#C0D0E0" stroke-width="1"></path><path fill="none" d="M 531.5 368 L 531.5 373" stroke="#C0D0E0" stroke-width="1"></path><path fill="none" d="M 686.5 368 L 686.5 373" stroke="#C0D0E0" stroke-width="1"></path><path fill="none" d="M 840.5 368 L 840.5 373" stroke="#C0D0E0" stroke-width="1"></path><path fill="none" d="M 995.5 368 L 995.5 373" stroke="#C0D0E0" stroke-width="1"></path><path fill="none" d="M 1150.5 368 L 1150.5 373" stroke="#C0D0E0" stroke-width="1"></path><path fill="none" d="M 1305.5 368 L 1305.5 373" stroke="#C0D0E0" stroke-width="1"></path><path fill="none" d="M 221.5 368 L 221.5 373" stroke="#C0D0E0" stroke-width="1"></path><path fill="none" d="M 67 368.5 L 1306 368.5" stroke="#C0D0E0" stroke-width="1"  visibility="visible"></path></g><g class="highcharts-axis" ><text x="28.078125" y="204" style="font-family:'lucida grande', 'lucida sans unicode', verdana, arial, helvetica, sans-serif;font-size:12px;color:#6d869f;font-weight:bold;fill:#6d869f;"  transform="rotate(270 28.078125 204)" text-anchor="middle" visibility="visible"><tspan x="28.078125">Running Time (ms)</tspan></text></g><g class="highcharts-series-group" ><g class="highcharts-series" visibility="visible"  transform="translate(67,40)" clip-path="url(#highcharts-14)"><path fill="none" d="M 77.4375 273.3 L 232.3125 273.3 L 387.1875 273.3 L 542.0625 273.3 L 696.9375 273.3 L 851.8125 273.3 L 1006.6875 273.3 L 1161.5625 273.3" stroke="black" stroke-width="5"   stroke-opacity="0.049999999999999996" transform="translate(1, 1)"></path><path fill="none" d="M 77.4375 273.3 L 232.3125 273.3 L 387.1875 273.3 L 542.0625 273.3 L 696.9375 273.3 L 851.8125 273.3 L 1006.6875 273.3 L 1161.5625 273.3" stroke="black" stroke-width="3"   stroke-opacity="0.09999999999999999" transform="translate(1, 1)"></path><path fill="none" d="M 77.4375 273.3 L 232.3125 273.3 L 387.1875 273.3 L 542.0625 273.3 L 696.9375 273.3 L 851.8125 273.3 L 1006.6875 273.3 L 1161.5625 273.3" stroke="black" stroke-width="1"   stroke-opacity="0.15" transform="translate(1, 1)"></path><path fill="none" d="M 77.4375 273.3 L 232.3125 273.3 L 387.1875 273.3 L 542.0625 273.3 L 696.9375 273.3 L 851.8125 273.3 L 1006.6875 273.3 L 1161.5625 273.3" stroke="#4572A7" stroke-width="2" ></path></g><g class="highcharts-markers" visibility="visible"  transform="translate(67,40)" clip-path="none"><path fill="#4572A7" d="M 1161.5625 269.3 C 1166.8905 269.3 1166.8905 277.3 1161.5625 277.3 C 1156.2345 277.3 1156.2345 269.3 1161.5625 269.3 Z" stroke="#FFFFFF" stroke-width="0.000001"></path><path fill="#4572A7" d="M 1006.6875 269.3 C 1012.0155 269.3 1012.0155 277.3 1006.6875 277.3 C 1001.3595 277.3 1001.3595 269.3 1006.6875 269.3 Z" stroke="#FFFFFF" stroke-width="0.000001"></path><path fill="#4572A7" d="M 851.8125 269.3 C 857.1405 269.3 857.1405 277.3 851.8125 277.3 C 846.4845 277.3 846.4845 269.3 851.8125 269.3 Z" stroke="#FFFFFF" stroke-width="0.000001"></path><path fill="#4572A7" d="M 696.9375 269.3 C 702.2655 269.3 702.2655 277.3 696.9375 277.3 C 691.6095 277.3 691.6095 269.3 696.9375 269.3 Z" stroke="#FFFFFF" stroke-width="0.000001"></path><path fill="#4572A7" d="M 542.0625 269.3 C 547.3905 269.3 547.3905 277.3 542.0625 277.3 C 536.7345 277.3 536.7345 269.3 542.0625 269.3 Z" stroke="#FFFFFF" stroke-width="0.000001"></path><path fill="#4572A7" d="M 387.1875 269.3 C 392.5155 269.3 392.5155 277.3 387.1875 277.3 C 381.8595 277.3 381.8595 269.3 387.1875 269.3 Z" stroke="#FFFFFF" stroke-width="0.000001"></path><path fill="#4572A7" d="M 232.3125 269.3 C 237.6405 269.3 237.6405 277.3 232.3125 277.3 C 226.9845 277.3 226.9845 269.3 232.3125 269.3 Z" stroke="#FFFFFF" stroke-width="0.000001"></path><path fill="#4572A7" d="M 77.4375 269.3 C 82.7655 269.3 82.7655 277.3 77.4375 277.3 C 72.1095 277.3 72.1095 269.3 77.4375 269.3 Z" stroke="#FFFFFF" stroke-width="0.000001"></path></g><g class="highcharts-series" visibility="visible"  transform="translate(67,40)" clip-path="url(#highcharts-14)"><path fill="none" d="M 77.4375 273.3 L 232.3125 273.3 L 387.1875 273.2 L 542.0625 273 L 696.9375 272.7 L 851.8125 270.9 L 1006.6875 242.2 L 1161.5625 43.6" stroke="black" stroke-width="5"   stroke-opacity="0.049999999999999996" transform="translate(1, 1)"></path><path fill="none" d="M 77.4375 273.3 L 232.3125 273.3 L 387.1875 273.2 L 542.0625 273 L 696.9375 272.7 L 851.8125 270.9 L 1006.6875 242.2 L 1161.5625 43.6" stroke="black" stroke-width="3"   stroke-opacity="0.09999999999999999" transform="translate(1, 1)"></path><path fill="none" d="M 77.4375 273.3 L 232.3125 273.3 L 387.1875 273.2 L 542.0625 273 L 696.9375 272.7 L 851.8125 270.9 L 1006.6875 242.2 L 1161.5625 43.6" stroke="black" stroke-width="1"   stroke-opacity="0.15" transform="translate(1, 1)"></path><path fill="none" d="M 77.4375 273.3 L 232.3125 273.3 L 387.1875 273.2 L 542.0625 273 L 696.9375 272.7 L 851.8125 270.9 L 1006.6875 242.2 L 1161.5625 43.6" stroke="#AA4643" stroke-width="2" ></path></g><g class="highcharts-markers" visibility="visible"  transform="translate(67,40)" clip-path="none"><path fill="#AA4643" d="M 1161.5625 39.6 L 1165.5625 43.6 1161.5625 47.6 1157.5625 43.6 Z" stroke="#FFFFFF" stroke-width="0.000001"></path><path fill="#AA4643" d="M 1006.6875 238.2 L 1010.6875 242.2 1006.6875 246.2 1002.6875 242.2 Z" stroke="#FFFFFF" stroke-width="0.000001"></path><path fill="#AA4643" d="M 851.8125 266.9 L 855.8125 270.9 851.8125 274.9 847.8125 270.9 Z" stroke="#FFFFFF" stroke-width="0.000001"></path><path fill="#AA4643" d="M 696.9375 268.7 L 700.9375 272.7 696.9375 276.7 692.9375 272.7 Z" stroke="#FFFFFF" stroke-width="0.000001"></path><path fill="#AA4643" d="M 542.0625 269 L 546.0625 273 542.0625 277 538.0625 273 Z" stroke="#FFFFFF" stroke-width="0.000001"></path><path fill="#AA4643" d="M 387.1875 269.2 L 391.1875 273.2 387.1875 277.2 383.1875 273.2 Z" stroke="#FFFFFF" stroke-width="0.000001"></path><path fill="#AA4643" d="M 232.3125 269.3 L 236.3125 273.3 232.3125 277.3 228.3125 273.3 Z" stroke="#FFFFFF" stroke-width="0.000001"></path><path fill="#AA4643" d="M 77.4375 269.3 L 81.4375 273.3 77.4375 277.3 73.4375 273.3 Z" stroke="#FFFFFF" stroke-width="0.000001"></path></g><g class="highcharts-series" visibility="visible"  transform="translate(67,40)" clip-path="url(#highcharts-14)"><path fill="none" d="M 77.4375 273.3 L 232.3125 273.3 L 387.1875 273.2 L 542.0625 273.1 L 696.9375 273 L 851.8125 272.2 L 1006.6875 254 L 1161.5625 153.6" stroke="black" stroke-width="5"   stroke-opacity="0.049999999999999996" transform="translate(1, 1)"></path><path fill="none" d="M 77.4375 273.3 L 232.3125 273.3 L 387.1875 273.2 L 542.0625 273.1 L 696.9375 273 L 851.8125 272.2 L 1006.6875 254 L 1161.5625 153.6" stroke="black" stroke-width="3"   stroke-opacity="0.09999999999999999" transform="translate(1, 1)"></path><path fill="none" d="M 77.4375 273.3 L 232.3125 273.3 L 387.1875 273.2 L 542.0625 273.1 L 696.9375 273 L 851.8125 272.2 L 1006.6875 254 L 1161.5625 153.6" stroke="black" stroke-width="1"   stroke-opacity="0.15" transform="translate(1, 1)"></path><path fill="none" d="M 77.4375 273.3 L 232.3125 273.3 L 387.1875 273.2 L 542.0625 273.1 L 696.9375 273 L 851.8125 272.2 L 1006.6875 254 L 1161.5625 153.6" stroke="#89A54E" stroke-width="2" ></path></g><g class="highcharts-markers" visibility="visible"  transform="translate(67,40)" clip-path="none"><path fill="#89A54E" d="M 1157.5625 149.6 L 1165.5625 149.6 1165.5625 157.6 1157.5625 157.6 Z" stroke="#FFFFFF" stroke-width="0.000001"></path><path fill="#89A54E" d="M 1002.6875 250 L 1010.6875 250 1010.6875 258 1002.6875 258 Z" stroke="#FFFFFF" stroke-width="0.000001"></path><path fill="#89A54E" d="M 847.8125 268.2 L 855.8125 268.2 855.8125 276.2 847.8125 276.2 Z" stroke="#FFFFFF" stroke-width="0.000001"></path><path fill="#89A54E" d="M 692.9375 269 L 700.9375 269 700.9375 277 692.9375 277 Z" stroke="#FFFFFF" stroke-width="0.000001"></path><path fill="#89A54E" d="M 538.0625 269.1 L 546.0625 269.1 546.0625 277.1 538.0625 277.1 Z" stroke="#FFFFFF" stroke-width="0.000001"></path><path fill="#89A54E" d="M 383.1875 269.2 L 391.1875 269.2 391.1875 277.2 383.1875 277.2 Z" stroke="#FFFFFF" stroke-width="0.000001"></path><path fill="#89A54E" d="M 228.3125 269.3 L 236.3125 269.3 236.3125 277.3 228.3125 277.3 Z" stroke="#FFFFFF" stroke-width="0.000001"></path><path fill="#89A54E" d="M 73.4375 269.3 L 81.4375 269.3 81.4375 277.3 73.4375 277.3 Z" stroke="#FFFFFF" stroke-width="0.000001"></path></g><g class="highcharts-series" visibility="visible"  transform="translate(67,40)" clip-path="url(#highcharts-14)"><path fill="none" d="M 77.4375 273.3 L 232.3125 273.3 L 387.1875 273.3 L 542.0625 273.1 L 696.9375 273.1 L 851.8125 272.1 L 1006.6875 254.6 L 1161.5625 156.8" stroke="black" stroke-width="5"   stroke-opacity="0.049999999999999996" transform="translate(1, 1)"></path><path fill="none" d="M 77.4375 273.3 L 232.3125 273.3 L 387.1875 273.3 L 542.0625 273.1 L 696.9375 273.1 L 851.8125 272.1 L 1006.6875 254.6 L 1161.5625 156.8" stroke="black" stroke-width="3"   stroke-opacity="0.09999999999999999" transform="translate(1, 1)"></path><path fill="none" d="M 77.4375 273.3 L 232.3125 273.3 L 387.1875 273.3 L 542.0625 273.1 L 696.9375 273.1 L 851.8125 272.1 L 1006.6875 254.6 L 1161.5625 156.8" stroke="black" stroke-width="1"   stroke-opacity="0.15" transform="translate(1, 1)"></path><path fill="none" d="M 77.4375 273.3 L 232.3125 273.3 L 387.1875 273.3 L 542.0625 273.1 L 696.9375 273.1 L 851.8125 272.1 L 1006.6875 254.6 L 1161.5625 156.8" stroke="#80699B" stroke-width="2" ></path></g><g class="highcharts-markers" visibility="visible"  transform="translate(67,40)" clip-path="none"><path fill="#80699B" d="M 1161.5625 152.8 L 1165.5625 160.8 1157.5625 160.8 Z" stroke="#FFFFFF" stroke-width="0.000001"></path><path fill="#80699B" d="M 1006.6875 250.6 L 1010.6875 258.6 1002.6875 258.6 Z" stroke="#FFFFFF" stroke-width="0.000001"></path><path fill="#80699B" d="M 851.8125 268.1 L 855.8125 276.1 847.8125 276.1 Z" stroke="#FFFFFF" stroke-width="0.000001"></path><path fill="#80699B" d="M 696.9375 269.1 L 700.9375 277.1 692.9375 277.1 Z" stroke="#FFFFFF" stroke-width="0.000001"></path><path fill="#80699B" d="M 542.0625 269.1 L 546.0625 277.1 538.0625 277.1 Z" stroke="#FFFFFF" stroke-width="0.000001"></path><path fill="#80699B" d="M 387.1875 269.3 L 391.1875 277.3 383.1875 277.3 Z" stroke="#FFFFFF" stroke-width="0.000001"></path><path fill="#80699B" d="M 232.3125 269.3 L 236.3125 277.3 228.3125 277.3 Z" stroke="#FFFFFF" stroke-width="0.000001"></path><path fill="#80699B" d="M 77.4375 269.3 L 81.4375 277.3 73.4375 277.3 Z" stroke="#FFFFFF" stroke-width="0.000001"></path></g></g><text x="783" y="25" style="font-family:'lucida grande', 'lucida sans unicode', verdana, arial, helvetica, sans-serif;font-size:16px;color:#3e576f;fill:#3e576f;" text-anchor="middle" class="highcharts-title" ><tspan x="783">Insertion Sort Performance</tspan></text><g class="highcharts-legend"  transform="translate(1316,110)"><g  clip-path="url(#highcharts-13)"><g><g class="highcharts-legend-item"  transform="translate(8,3)"><path fill="none" d="M 0 11 L 16 11" stroke-width="2" stroke="#4572A7"></path><path fill="#4572A7" d="M 8 7 C 13.328 7 13.328 15 8 15 C 2.6719999999999997 15 2.6719999999999997 7 8 7 Z" stroke="#FFFFFF" stroke-width="0.000001"></path><text x="21" y="15" style="font-family:'lucida grande', 'lucida sans unicode', verdana, arial, helvetica, sans-serif;font-size:12px;cursor:pointer;color:#3e576f;fill:#3e576f;" text-anchor="start" ><tspan x="21">Sorted</tspan></text></g><g class="highcharts-legend-item"  transform="translate(8,21)"><path fill="none" d="M 0 11 L 16 11" stroke-width="2" stroke="#AA4643"></path><path fill="#AA4643" d="M 8 7 L 12 11 8 15 4 11 Z" stroke="#FFFFFF" stroke-width="0.000001"></path><text x="21" y="15" style="font-family:'lucida grande', 'lucida sans unicode', verdana, arial, helvetica, sans-serif;font-size:12px;cursor:pointer;color:#3e576f;fill:#3e576f;" text-anchor="start" ><tspan x="21">Reversely Sorted</tspan></text></g><g class="highcharts-legend-item"  transform="translate(8,39)"><path fill="none" d="M 0 11 L 16 11" stroke-width="2" stroke="#89A54E"></path><path fill="#89A54E" d="M 4 7 L 12 7 12 15 4 15 Z" stroke="#FFFFFF" stroke-width="0.000001"></path><text x="21" y="15" style="font-family:'lucida grande', 'lucida sans unicode', verdana, arial, helvetica, sans-serif;font-size:12px;cursor:pointer;color:#3e576f;fill:#3e576f;" text-anchor="start" ><tspan x="21">Random Permutation</tspan></text></g><g class="highcharts-legend-item"  transform="translate(8,57)"><path fill="none" d="M 0 11 L 16 11" stroke-width="2" stroke="#80699B"></path><path fill="#80699B" d="M 8 7 L 12 15 4 15 Z" stroke="#FFFFFF" stroke-width="0.000001"></path><text x="21" y="15" style="font-family:'lucida grande', 'lucida sans unicode', verdana, arial, helvetica, sans-serif;font-size:12px;cursor:pointer;color:#3e576f;fill:#3e576f;" text-anchor="start" ><tspan x="21">Average over 50 Instances Random Input</tspan></text></g></g></g></g><g class="highcharts-axis-labels" ><text x="144.4375" y="382" style="font-family:'lucida grande', 'lucida sans unicode', verdana, arial, helvetica, sans-serif;font-size:11px;width:135px;color:#666;line-height:14px;fill:#666;" text-anchor="middle"><tspan x="144.4375">100</tspan></text><text x="299.3125" y="382" style="font-family:'lucida grande', 'lucida sans unicode', verdana, arial, helvetica, sans-serif;font-size:11px;width:135px;color:#666;line-height:14px;fill:#666;" text-anchor="middle"><tspan x="299.3125">200</tspan></text><text x="454.1875" y="382" style="font-family:'lucida grande', 'lucida sans unicode', verdana, arial, helvetica, sans-serif;font-size:11px;width:135px;color:#666;line-height:14px;fill:#666;" text-anchor="middle"><tspan x="454.1875">300</tspan></text><text x="609.0625" y="382" style="font-family:'lucida grande', 'lucida sans unicode', verdana, arial, helvetica, sans-serif;font-size:11px;width:135px;color:#666;line-height:14px;fill:#666;" text-anchor="middle"><tspan x="609.0625">400</tspan></text><text x="763.9375" y="382" style="font-family:'lucida grande', 'lucida sans unicode', verdana, arial, helvetica, sans-serif;font-size:11px;width:135px;color:#666;line-height:14px;fill:#666;" text-anchor="middle"><tspan x="763.9375">500</tspan></text><text x="918.8125" y="382" style="font-family:'lucida grande', 'lucida sans unicode', verdana, arial, helvetica, sans-serif;font-size:11px;width:135px;color:#666;line-height:14px;fill:#666;" text-anchor="middle"><tspan x="918.8125">1000</tspan></text><text x="1073.6875" y="382" style="font-family:'lucida grande', 'lucida sans unicode', verdana, arial, helvetica, sans-serif;font-size:11px;width:135px;color:#666;line-height:14px;fill:#666;" text-anchor="middle"><tspan x="1073.6875">4000</tspan></text><text x="1228.5625" y="382" style="font-family:'lucida grande', 'lucida sans unicode', verdana, arial, helvetica, sans-serif;font-size:11px;width:135px;color:#666;line-height:14px;fill:#666;" text-anchor="middle"><tspan x="1228.5625">10000</tspan></text></g><g class="highcharts-axis-labels" ><text x="59" y="372.1" style="font-family:'lucida grande', 'lucida sans unicode', verdana, arial, helvetica, sans-serif;font-size:11px;width:600px;color:#666;line-height:14px;fill:#666;" text-anchor="end"><tspan x="59">-2k</tspan></text><text x="59" y="317.43333333333334" style="font-family:'lucida grande', 'lucida sans unicode', verdana, arial, helvetica, sans-serif;font-size:11px;width:600px;color:#666;line-height:14px;fill:#666;" text-anchor="end"><tspan x="59">0k</tspan></text><text x="59" y="262.76666666666665" style="font-family:'lucida grande', 'lucida sans unicode', verdana, arial, helvetica, sans-serif;font-size:11px;width:600px;color:#666;line-height:14px;fill:#666;" text-anchor="end"><tspan x="59">2k</tspan></text><text x="59" y="208.1" style="font-family:'lucida grande', 'lucida sans unicode', verdana, arial, helvetica, sans-serif;font-size:11px;width:600px;color:#666;line-height:14px;fill:#666;" text-anchor="end"><tspan x="59">4k</tspan></text><text x="59" y="153.4333333333333" style="font-family:'lucida grande', 'lucida sans unicode', verdana, arial, helvetica, sans-serif;font-size:11px;width:600px;color:#666;line-height:14px;fill:#666;" text-anchor="end"><tspan x="59">6k</tspan></text><text x="59" y="98.76666666666662" style="font-family:'lucida grande', 'lucida sans unicode', verdana, arial, helvetica, sans-serif;font-size:11px;width:600px;color:#666;line-height:14px;fill:#666;" text-anchor="end"><tspan x="59">8k</tspan></text><text x="59" y="44.1" style="font-family:'lucida grande', 'lucida sans unicode', verdana, arial, helvetica, sans-serif;font-size:11px;width:600px;color:#666;line-height:14px;fill:#666;" text-anchor="end"><tspan x="59">10k</tspan></text></g><g class="highcharts-tooltip"  style="padding:0;white-space:nowrap;" visibility="hidden"><rect rx="5" ry="5" fill="none" x="0" y="0" width="10" height="10" stroke-width="5" fill-opacity="0.85"  stroke="black" stroke-opacity="0.049999999999999996" transform="translate(1, 1)"></rect><rect rx="5" ry="5" fill="none" x="0" y="0" width="10" height="10" stroke-width="3" fill-opacity="0.85"  stroke="black" stroke-opacity="0.09999999999999999" transform="translate(1, 1)"></rect><rect rx="5" ry="5" fill="none" x="0" y="0" width="10" height="10" stroke-width="1" fill-opacity="0.85"  stroke="black" stroke-opacity="0.15" transform="translate(1, 1)"></rect><rect rx="5" ry="5" fill="rgb(255,255,255)" x="0" y="0" width="10" height="10" stroke-width="2" fill-opacity="0.85"></rect><text x="5" y="18" style="font-family:'lucida grande', 'lucida sans unicode', verdana, arial, helvetica, sans-serif;font-size:12px;color:#333333;fill:#333333;" ></text></g><text x="1595" y="395" style="font-family:'lucida grande', 'lucida sans unicode', verdana, arial, helvetica, sans-serif;font-size:10px;cursor:pointer;color:#909090;fill:#909090;" text-anchor="end" ><tspan x="1595">Highcharts.com</tspan></text><g class="highcharts-tracker" ><g visibility="visible"  transform="translate(67,40)" clip-path="url(#highcharts-14)"><path fill="none" d="M 67.4375 273.3 L 77.4375 273.3 L 232.3125 273.3 L 387.1875 273.3 L 542.0625 273.3 L 696.9375 273.3 L 851.8125 273.3 L 1006.6875 273.3 L 1161.5625 273.3 L 1171.5625 273.3"  stroke-linejoin="round" visibility="visible" stroke-opacity="0.0001" stroke="rgb(192,192,192)" stroke-width="22" style=""></path></g><g visibility="visible"  transform="translate(67,40)" clip-path="url(#highcharts-14)"><path fill="none" d="M 67.4375 273.3 L 77.4375 273.3 L 232.3125 273.3 L 387.1875 273.2 L 542.0625 273 L 696.9375 272.7 L 851.8125 270.9 L 1006.6875 242.2 L 1161.5625 43.6 L 1171.5625 43.6"  stroke-linejoin="round" visibility="visible" stroke-opacity="0.0001" stroke="rgb(192,192,192)" stroke-width="22" style=""></path></g><g visibility="visible"  transform="translate(67,40)" clip-path="url(#highcharts-14)"><path fill="none" d="M 67.4375 273.3 L 77.4375 273.3 L 232.3125 273.3 L 387.1875 273.2 L 542.0625 273.1 L 696.9375 273 L 851.8125 272.2 L 1006.6875 254 L 1161.5625 153.6 L 1171.5625 153.6"  stroke-linejoin="round" visibility="visible" stroke-opacity="0.0001" stroke="rgb(192,192,192)" stroke-width="22" style=""></path></g><g visibility="visible"  transform="translate(67,40)" clip-path="url(#highcharts-14)"><path fill="none" d="M 67.4375 273.3 L 77.4375 273.3 L 232.3125 273.3 L 387.1875 273.3 L 542.0625 273.1 L 696.9375 273.1 L 851.8125 272.1 L 1006.6875 254.6 L 1161.5625 156.8 L 1171.5625 156.8"  stroke-linejoin="round" visibility="visible" stroke-opacity="0.0001" stroke="rgb(192,192,192)" stroke-width="22" style=""></path></g></g></svg>