<?xml version="1.0" standalone="no"?><!DOCTYPE svg PUBLIC "-//W3C//DTD SVG 1.1//EN" "http://www.w3.org/Graphics/SVG/1.1/DTD/svg11.dtd"><svg xmlns:xlink="http://www.w3.org/1999/xlink" xmlns="http://www.w3.org/2000/svg" version="1.1" width="1605" height="400"><defs><clipPath id="highcharts-7"><rect rx="0" ry="0" fill="none" x="0" y="0" width="9999" height="400" stroke-width="0.000001"></rect></clipPath><clipPath id="highcharts-8"><rect fill="none" x="0" y="0" width="1239" height="328"></rect></clipPath></defs><rect rx="5" ry="5" fill="#FFFFFF" x="0" y="0" width="1605" height="400" stroke-width="0.000001"></rect><path fill="none" d="M 67 313.5 L 1306 313.5" stroke="#808080" stroke-width="1"></path><g class="highcharts-grid" ></g><g class="highcharts-grid" ><path fill="none" d="M 67 313.5 L 1306 313.5" stroke="#C0C0C0" stroke-width="1" ></path><path fill="none" d="M 67 259.5 L 1306 259.5" stroke="#C0C0C0" stroke-width="1" ></path><path fill="none" d="M 67 204.5 L 1306 204.5" stroke="#C0C0C0" stroke-width="1" ></path><path fill="none" d="M 67 149.5 L 1306 149.5" stroke="#C0C0C0" stroke-width="1" ></path><path fill="none" d="M 67 95.5 L 1306 95.5" stroke="#C0C0C0" stroke-width="1" ></path><path fill="none" d="M 67 40.5 L 1306 40.5" stroke="#C0C0C0" stroke-width="1" ></path><path fill="none" d="M 67 368.5 L 1306 368.5" stroke="#C0C0C0" stroke-width="1" ></path></g><g class="highcharts-axis" ><path fill="none" d="M 376.5 368 L 376.5 373" stroke="#C0D0E0" stroke-width="1"></path><path fill="none" d="M 531.5 368 L 531.5 373" stroke="#C0D0E0" stroke-width="1"></path><path fill="none" d="M 686.5 368 L 686.5 373" stroke="#C0D0E0" stroke-width="1"></path><path fill="none" d="M 840.5 368 L 840.5 373" stroke="#C0D0E0" stroke-width="1"></path><path fill="none" d="M 995.5 368 L 995.5 373" stroke="#C0D0E0" stroke-width="1"></path><path fill="none" d="M 1150.5 368 L 1150.5 373" stroke="#C0D0E0" stroke-width="1"></path><path fill="none" d="M 1305.5 368 L 1305.5 373" stroke="#C0D0E0" stroke-width="1"></path><path fill="none" d="M 221.5 368 L 221.5 373" stroke="#C0D0E0" stroke-width="1"></path><path fill="none" d="M 67 368.5 L 1306 368.5" stroke="#C0D0E0" stroke-width="1"  visibility="visible"></path></g><g class="highcharts-axis" ><text x="28.078125" y="204" style="font-family:'lucida grande', 'lucida sans unicode', verdana, arial, helvetica, sans-serif;font-size:12px;color:#6d869f;font-weight:bold;fill:#6d869f;"  transform="rotate(270 28.078125 204)" text-anchor="middle" visibility="visible"><tspan x="28.078125">Running Time (ms)</tspan></text></g><g class="highcharts-series-group" ><g class="highcharts-series" visibility="visible"  transform="translate(67,40)" clip-path="url(#highcharts-8)"><path fill="none" d="M 77.4375 273.3 L 232.3125 271.1 L 387.1875 269 L 542.0625 266.8 L 696.9375 264.6 L 851.8125 255.8 L 1006.6875 190.2 L 1161.5625 142.1" stroke="black" stroke-width="5"   stroke-opacity="0.049999999999999996" transform="translate(1, 1)"></path><path fill="none" d="M 77.4375 273.3 L 232.3125 271.1 L 387.1875 269 L 542.0625 266.8 L 696.9375 264.6 L 851.8125 255.8 L 1006.6875 190.2 L 1161.5625 142.1" stroke="black" stroke-width="3"   stroke-opacity="0.09999999999999999" transform="translate(1, 1)"></path><path fill="none" d="M 77.4375 273.3 L 232.3125 271.1 L 387.1875 269 L 542.0625 266.8 L 696.9375 264.6 L 851.8125 255.8 L 1006.6875 190.2 L 1161.5625 142.1" stroke="black" stroke-width="1"   stroke-opacity="0.15" transform="translate(1, 1)"></path><path fill="none" d="M 77.4375 273.3 L 232.3125 271.1 L 387.1875 269 L 542.0625 266.8 L 696.9375 264.6 L 851.8125 255.8 L 1006.6875 190.2 L 1161.5625 142.1" stroke="#4572A7" stroke-width="2" ></path></g><g class="highcharts-markers" visibility="visible"  transform="translate(67,40)" clip-path="none"><path fill="#4572A7" d="M 1161.5625 138.1 C 1166.8905 138.1 1166.8905 146.1 1161.5625 146.1 C 1156.2345 146.1 1156.2345 138.1 1161.5625 138.1 Z" stroke="#FFFFFF" stroke-width="0.000001"></path><path fill="#4572A7" d="M 1006.6875 186.2 C 1012.0155 186.2 1012.0155 194.2 1006.6875 194.2 C 1001.3595 194.2 1001.3595 186.2 1006.6875 186.2 Z" stroke="#FFFFFF" stroke-width="0.000001"></path><path fill="#4572A7" d="M 851.8125 251.8 C 857.1405 251.8 857.1405 259.8 851.8125 259.8 C 846.4845 259.8 846.4845 251.8 851.8125 251.8 Z" stroke="#FFFFFF" stroke-width="0.000001"></path><path fill="#4572A7" d="M 696.9375 260.6 C 702.2655 260.6 702.2655 268.6 696.9375 268.6 C 691.6095 268.6 691.6095 260.6 696.9375 260.6 Z" stroke="#FFFFFF" stroke-width="0.000001"></path><path fill="#4572A7" d="M 542.0625 262.8 C 547.3905 262.8 547.3905 270.8 542.0625 270.8 C 536.7345 270.8 536.7345 262.8 542.0625 262.8 Z" stroke="#FFFFFF" stroke-width="0.000001"></path><path fill="#4572A7" d="M 387.1875 265 C 392.5155 265 392.5155 273 387.1875 273 C 381.8595 273 381.8595 265 387.1875 265 Z" stroke="#FFFFFF" stroke-width="0.000001"></path><path fill="#4572A7" d="M 232.3125 267.1 C 237.6405 267.1 237.6405 275.1 232.3125 275.1 C 226.9845 275.1 226.9845 267.1 232.3125 267.1 Z" stroke="#FFFFFF" stroke-width="0.000001"></path><path fill="#4572A7" d="M 77.4375 269.3 C 82.7655 269.3 82.7655 277.3 77.4375 277.3 C 72.1095 277.3 72.1095 269.3 77.4375 269.3 Z" stroke="#FFFFFF" stroke-width="0.000001"></path></g><g class="highcharts-series" visibility="visible"  transform="translate(67,40)" clip-path="url(#highcharts-8)"><path fill="none" d="M 77.4375 273.3 L 232.3125 271.1 L 387.1875 269 L 542.0625 266.8 L 696.9375 264.6 L 851.8125 255.8 L 1006.6875 190.2 L 1161.5625 80.9" stroke="black" stroke-width="5"   stroke-opacity="0.049999999999999996" transform="translate(1, 1)"></path><path fill="none" d="M 77.4375 273.3 L 232.3125 271.1 L 387.1875 269 L 542.0625 266.8 L 696.9375 264.6 L 851.8125 255.8 L 1006.6875 190.2 L 1161.5625 80.9" stroke="black" stroke-width="3"   stroke-opacity="0.09999999999999999" transform="translate(1, 1)"></path><path fill="none" d="M 77.4375 273.3 L 232.3125 271.1 L 387.1875 269 L 542.0625 266.8 L 696.9375 264.6 L 851.8125 255.8 L 1006.6875 190.2 L 1161.5625 80.9" stroke="black" stroke-width="1"   stroke-opacity="0.15" transform="translate(1, 1)"></path><path fill="none" d="M 77.4375 273.3 L 232.3125 271.1 L 387.1875 269 L 542.0625 266.8 L 696.9375 264.6 L 851.8125 255.8 L 1006.6875 190.2 L 1161.5625 80.9" stroke="#AA4643" stroke-width="2" ></path></g><g class="highcharts-markers" visibility="visible"  transform="translate(67,40)" clip-path="none"><path fill="#AA4643" d="M 1161.5625 76.9 L 1165.5625 80.9 1161.5625 84.9 1157.5625 80.9 Z" stroke="#FFFFFF" stroke-width="0.000001"></path><path fill="#AA4643" d="M 1006.6875 186.2 L 1010.6875 190.2 1006.6875 194.2 1002.6875 190.2 Z" stroke="#FFFFFF" stroke-width="0.000001"></path><path fill="#AA4643" d="M 851.8125 251.8 L 855.8125 255.8 851.8125 259.8 847.8125 255.8 Z" stroke="#FFFFFF" stroke-width="0.000001"></path><path fill="#AA4643" d="M 696.9375 260.6 L 700.9375 264.6 696.9375 268.6 692.9375 264.6 Z" stroke="#FFFFFF" stroke-width="0.000001"></path><path fill="#AA4643" d="M 542.0625 262.8 L 546.0625 266.8 542.0625 270.8 538.0625 266.8 Z" stroke="#FFFFFF" stroke-width="0.000001"></path><path fill="#AA4643" d="M 387.1875 265 L 391.1875 269 387.1875 273 383.1875 269 Z" stroke="#FFFFFF" stroke-width="0.000001"></path><path fill="#AA4643" d="M 232.3125 267.1 L 236.3125 271.1 232.3125 275.1 228.3125 271.1 Z" stroke="#FFFFFF" stroke-width="0.000001"></path><path fill="#AA4643" d="M 77.4375 269.3 L 81.4375 273.3 77.4375 277.3 73.4375 273.3 Z" stroke="#FFFFFF" stroke-width="0.000001"></path></g><g class="highcharts-series" visibility="visible"  transform="translate(67,40)" clip-path="url(#highcharts-8)"><path fill="none" d="M 77.4375 273.3 L 232.3125 271.1 L 387.1875 269 L 542.0625 266.8 L 696.9375 264.6 L 851.8125 255.8 L 1006.6875 194.6 L 1161.5625 59" stroke="black" stroke-width="5"   stroke-opacity="0.049999999999999996" transform="translate(1, 1)"></path><path fill="none" d="M 77.4375 273.3 L 232.3125 271.1 L 387.1875 269 L 542.0625 266.8 L 696.9375 264.6 L 851.8125 255.8 L 1006.6875 194.6 L 1161.5625 59" stroke="black" stroke-width="3"   stroke-opacity="0.09999999999999999" transform="translate(1, 1)"></path><path fill="none" d="M 77.4375 273.3 L 232.3125 271.1 L 387.1875 269 L 542.0625 266.8 L 696.9375 264.6 L 851.8125 255.8 L 1006.6875 194.6 L 1161.5625 59" stroke="black" stroke-width="1"   stroke-opacity="0.15" transform="translate(1, 1)"></path><path fill="none" d="M 77.4375 273.3 L 232.3125 271.1 L 387.1875 269 L 542.0625 266.8 L 696.9375 264.6 L 851.8125 255.8 L 1006.6875 194.6 L 1161.5625 59" stroke="#89A54E" stroke-width="2" ></path></g><g class="highcharts-markers" visibility="visible"  transform="translate(67,40)" clip-path="none"><path fill="#89A54E" d="M 1157.5625 55 L 1165.5625 55 1165.5625 63 1157.5625 63 Z" stroke="#FFFFFF" stroke-width="0.000001"></path><path fill="#89A54E" d="M 1002.6875 190.6 L 1010.6875 190.6 1010.6875 198.6 1002.6875 198.6 Z" stroke="#FFFFFF" stroke-width="0.000001"></path><path fill="#89A54E" d="M 847.8125 251.8 L 855.8125 251.8 855.8125 259.8 847.8125 259.8 Z" stroke="#FFFFFF" stroke-width="0.000001"></path><path fill="#89A54E" d="M 692.9375 260.6 L 700.9375 260.6 700.9375 268.6 692.9375 268.6 Z" stroke="#FFFFFF" stroke-width="0.000001"></path><path fill="#89A54E" d="M 538.0625 262.8 L 546.0625 262.8 546.0625 270.8 538.0625 270.8 Z" stroke="#FFFFFF" stroke-width="0.000001"></path><path fill="#89A54E" d="M 383.1875 265 L 391.1875 265 391.1875 273 383.1875 273 Z" stroke="#FFFFFF" stroke-width="0.000001"></path><path fill="#89A54E" d="M 228.3125 267.1 L 236.3125 267.1 236.3125 275.1 228.3125 275.1 Z" stroke="#FFFFFF" stroke-width="0.000001"></path><path fill="#89A54E" d="M 73.4375 269.3 L 81.4375 269.3 81.4375 277.3 73.4375 277.3 Z" stroke="#FFFFFF" stroke-width="0.000001"></path></g><g class="highcharts-series" visibility="visible"  transform="translate(67,40)" clip-path="url(#highcharts-8)"><path fill="none" d="M 77.4375 273.3 L 232.3125 271.1 L 387.1875 269 L 542.0625 266.8 L 696.9375 266.8 L 851.8125 255.8 L 1006.6875 196.8 L 1161.5625 78.7" stroke="black" stroke-width="5"   stroke-opacity="0.049999999999999996" transform="translate(1, 1)"></path><path fill="none" d="M 77.4375 273.3 L 232.3125 271.1 L 387.1875 269 L 542.0625 266.8 L 696.9375 266.8 L 851.8125 255.8 L 1006.6875 196.8 L 1161.5625 78.7" stroke="black" stroke-width="3"   stroke-opacity="0.09999999999999999" transform="translate(1, 1)"></path><path fill="none" d="M 77.4375 273.3 L 232.3125 271.1 L 387.1875 269 L 542.0625 266.8 L 696.9375 266.8 L 851.8125 255.8 L 1006.6875 196.8 L 1161.5625 78.7" stroke="black" stroke-width="1"   stroke-opacity="0.15" transform="translate(1, 1)"></path><path fill="none" d="M 77.4375 273.3 L 232.3125 271.1 L 387.1875 269 L 542.0625 266.8 L 696.9375 266.8 L 851.8125 255.8 L 1006.6875 196.8 L 1161.5625 78.7" stroke="#80699B" stroke-width="2" ></path></g><g class="highcharts-markers" visibility="visible"  transform="translate(67,40)" clip-path="none"><path fill="#80699B" d="M 1161.5625 74.7 L 1165.5625 82.7 1157.5625 82.7 Z" stroke="#FFFFFF" stroke-width="0.000001"></path><path fill="#80699B" d="M 1006.6875 192.8 L 1010.6875 200.8 1002.6875 200.8 Z" stroke="#FFFFFF" stroke-width="0.000001"></path><path fill="#80699B" d="M 851.8125 251.8 L 855.8125 259.8 847.8125 259.8 Z" stroke="#FFFFFF" stroke-width="0.000001"></path><path fill="#80699B" d="M 696.9375 262.8 L 700.9375 270.8 692.9375 270.8 Z" stroke="#FFFFFF" stroke-width="0.000001"></path><path fill="#80699B" d="M 542.0625 262.8 L 546.0625 270.8 538.0625 270.8 Z" stroke="#FFFFFF" stroke-width="0.000001"></path><path fill="#80699B" d="M 387.1875 265 L 391.1875 273 383.1875 273 Z" stroke="#FFFFFF" stroke-width="0.000001"></path><path fill="#80699B" d="M 232.3125 267.1 L 236.3125 275.1 228.3125 275.1 Z" stroke="#FFFFFF" stroke-width="0.000001"></path><path fill="#80699B" d="M 77.4375 269.3 L 81.4375 277.3 73.4375 277.3 Z" stroke="#FFFFFF" stroke-width="0.000001"></path></g></g><text x="783" y="25" style="font-family:'lucida grande', 'lucida sans unicode', verdana, arial, helvetica, sans-serif;font-size:16px;color:#3e576f;fill:#3e576f;" text-anchor="middle" class="highcharts-title" ><tspan x="783">Merge Sort Performance</tspan></text><g class="highcharts-legend"  transform="translate(1316,110)"><g  clip-path="url(#highcharts-7)"><g><g class="highcharts-legend-item"  transform="translate(8,3)"><path fill="none" d="M 0 11 L 16 11" stroke-width="2" stroke="#4572A7"></path><path fill="#4572A7" d="M 8 7 C 13.328 7 13.328 15 8 15 C 2.6719999999999997 15 2.6719999999999997 7 8 7 Z" stroke="#FFFFFF" stroke-width="0.000001"></path><text x="21" y="15" style="font-family:'lucida grande', 'lucida sans unicode', verdana, arial, helvetica, sans-serif;font-size:12px;cursor:pointer;color:#3e576f;fill:#3e576f;" text-anchor="start" ><tspan x="21">Sorted</tspan></text></g><g class="highcharts-legend-item"  transform="translate(8,21)"><path fill="none" d="M 0 11 L 16 11" stroke-width="2" stroke="#AA4643"></path><path fill="#AA4643" d="M 8 7 L 12 11 8 15 4 11 Z" stroke="#FFFFFF" stroke-width="0.000001"></path><text x="21" y="15" style="font-family:'lucida grande', 'lucida sans unicode', verdana, arial, helvetica, sans-serif;font-size:12px;cursor:pointer;color:#3e576f;fill:#3e576f;" text-anchor="start" ><tspan x="21">Reversely Sorted</tspan></text></g><g class="highcharts-legend-item"  transform="translate(8,39)"><path fill="none" d="M 0 11 L 16 11" stroke-width="2" stroke="#89A54E"></path><path fill="#89A54E" d="M 4 7 L 12 7 12 15 4 15 Z" stroke="#FFFFFF" stroke-width="0.000001"></path><text x="21" y="15" style="font-family:'lucida grande', 'lucida sans unicode', verdana, arial, helvetica, sans-serif;font-size:12px;cursor:pointer;color:#3e576f;fill:#3e576f;" text-anchor="start" ><tspan x="21">Random Permutation</tspan></text></g><g class="highcharts-legend-item"  transform="translate(8,57)"><path fill="none" d="M 0 11 L 16 11" stroke-width="2" stroke="#80699B"></path><path fill="#80699B" d="M 8 7 L 12 15 4 15 Z" stroke="#FFFFFF" stroke-width="0.000001"></path><text x="21" y="15" style="font-family:'lucida grande', 'lucida sans unicode', verdana, arial, helvetica, sans-serif;font-size:12px;cursor:pointer;color:#3e576f;fill:#3e576f;" text-anchor="start" ><tspan x="21">Average over 50 Instances Random Input</tspan></text></g></g></g></g><g class="highcharts-axis-labels" ><text x="144.4375" y="382" style="font-family:'lucida grande', 'lucida sans unicode', verdana, arial, helvetica, sans-serif;font-size:11px;width:135px;color:#666;line-height:14px;fill:#666;" text-anchor="middle"><tspan x="144.4375">100</tspan></text><text x="299.3125" y="382" style="font-family:'lucida grande', 'lucida sans unicode', verdana, arial, helvetica, sans-serif;font-size:11px;width:135px;color:#666;line-height:14px;fill:#666;" text-anchor="middle"><tspan x="299.3125">200</tspan></text><text x="454.1875" y="382" style="font-family:'lucida grande', 'lucida sans unicode', verdana, arial, helvetica, sans-serif;font-size:11px;width:135px;color:#666;line-height:14px;fill:#666;" text-anchor="middle"><tspan x="454.1875">300</tspan></text><text x="609.0625" y="382" style="font-family:'lucida grande', 'lucida sans unicode', verdana, arial, helvetica, sans-serif;font-size:11px;width:135px;color:#666;line-height:14px;fill:#666;" text-anchor="middle"><tspan x="609.0625">400</tspan></text><text x="763.9375" y="382" style="font-family:'lucida grande', 'lucida sans unicode', verdana, arial, helvetica, sans-serif;font-size:11px;width:135px;color:#666;line-height:14px;fill:#666;" text-anchor="middle"><tspan x="763.9375">500</tspan></text><text x="918.8125" y="382" style="font-family:'lucida grande', 'lucida sans unicode', verdana, arial, helvetica, sans-serif;font-size:11px;width:135px;color:#666;line-height:14px;fill:#666;" text-anchor="middle"><tspan x="918.8125">1000</tspan></text><text x="1073.6875" y="382" style="font-family:'lucida grande', 'lucida sans unicode', verdana, arial, helvetica, sans-serif;font-size:11px;width:135px;color:#666;line-height:14px;fill:#666;" text-anchor="middle"><tspan x="1073.6875">4000</tspan></text><text x="1228.5625" y="382" style="font-family:'lucida grande', 'lucida sans unicode', verdana, arial, helvetica, sans-serif;font-size:11px;width:135px;color:#666;line-height:14px;fill:#666;" text-anchor="middle"><tspan x="1228.5625">10000</tspan></text></g><g class="highcharts-axis-labels" ><text x="59" y="317.43333333333334" style="font-family:'lucida grande', 'lucida sans unicode', verdana, arial, helvetica, sans-serif;font-size:11px;width:600px;color:#666;line-height:14px;fill:#666;" text-anchor="end"><tspan x="59">0</tspan></text><text x="59" y="98.76666666666668" style="font-family:'lucida grande', 'lucida sans unicode', verdana, arial, helvetica, sans-serif;font-size:11px;width:600px;color:#666;line-height:14px;fill:#666;" text-anchor="end"><tspan x="59">100</tspan></text><text x="59" y="372.1" style="font-family:'lucida grande', 'lucida sans unicode', verdana, arial, helvetica, sans-serif;font-size:11px;width:600px;color:#666;line-height:14px;fill:#666;" text-anchor="end"><tspan x="59">-25</tspan></text><text x="59" y="262.7666666666667" style="font-family:'lucida grande', 'lucida sans unicode', verdana, arial, helvetica, sans-serif;font-size:11px;width:600px;color:#666;line-height:14px;fill:#666;" text-anchor="end"><tspan x="59">25</tspan></text><text x="59" y="208.1" style="font-family:'lucida grande', 'lucida sans unicode', verdana, arial, helvetica, sans-serif;font-size:11px;width:600px;color:#666;line-height:14px;fill:#666;" text-anchor="end"><tspan x="59">50</tspan></text><text x="59" y="153.43333333333334" style="font-family:'lucida grande', 'lucida sans unicode', verdana, arial, helvetica, sans-serif;font-size:11px;width:600px;color:#666;line-height:14px;fill:#666;" text-anchor="end"><tspan x="59">75</tspan></text><text x="59" y="44.1" style="font-family:'lucida grande', 'lucida sans unicode', verdana, arial, helvetica, sans-serif;font-size:11px;width:600px;color:#666;line-height:14px;fill:#666;" text-anchor="end"><tspan x="59">125</tspan></text></g><g class="highcharts-tooltip"  style="padding:0;white-space:nowrap;" visibility="hidden"><rect rx="5" ry="5" fill="none" x="0" y="0" width="10" height="10" stroke-width="5" fill-opacity="0.85"  stroke="black" stroke-opacity="0.049999999999999996" transform="translate(1, 1)"></rect><rect rx="5" ry="5" fill="none" x="0" y="0" width="10" height="10" stroke-width="3" fill-opacity="0.85"  stroke="black" stroke-opacity="0.09999999999999999" transform="translate(1, 1)"></rect><rect rx="5" ry="5" fill="none" x="0" y="0" width="10" height="10" stroke-width="1" fill-opacity="0.85"  stroke="black" stroke-opacity="0.15" transform="translate(1, 1)"></rect><rect rx="5" ry="5" fill="rgb(255,255,255)" x="0" y="0" width="10" height="10" stroke-width="2" fill-opacity="0.85"></rect><text x="5" y="18" style="font-family:'lucida grande', 'lucida sans unicode', verdana, arial, helvetica, sans-serif;font-size:12px;color:#333333;fill:#333333;" ></text></g><text x="1595" y="395" style="font-family:'lucida grande', 'lucida sans unicode', verdana, arial, helvetica, sans-serif;font-size:10px;cursor:pointer;color:#909090;fill:#909090;" text-anchor="end" ><tspan x="1595">Highcharts.com</tspan></text><g class="highcharts-tracker" ><g visibility="visible"  transform="translate(67,40)" clip-path="url(#highcharts-8)"><path fill="none" d="M 67.4375 273.3 L 77.4375 273.3 L 232.3125 271.1 L 387.1875 269 L 542.0625 266.8 L 696.9375 264.6 L 851.8125 255.8 L 1006.6875 190.2 L 1161.5625 142.1 L 1171.5625 142.1"  stroke-linejoin="round" visibility="visible" stroke-opacity="0.0001" stroke="rgb(192,192,192)" stroke-width="22" style=""></path></g><g visibility="visible"  transform="translate(67,40)" clip-path="url(#highcharts-8)"><path fill="none" d="M 67.4375 273.3 L 77.4375 273.3 L 232.3125 271.1 L 387.1875 269 L 542.0625 266.8 L 696.9375 264.6 L 851.8125 255.8 L 1006.6875 190.2 L 1161.5625 80.9 L 1171.5625 80.9"  stroke-linejoin="round" visibility="visible" stroke-opacity="0.0001" stroke="rgb(192,192,192)" stroke-width="22" style=""></path></g><g visibility="visible"  transform="translate(67,40)" clip-path="url(#highcharts-8)"><path fill="none" d="M 67.4375 273.3 L 77.4375 273.3 L 232.3125 271.1 L 387.1875 269 L 542.0625 266.8 L 696.9375 264.6 L 851.8125 255.8 L 1006.6875 194.6 L 1161.5625 59 L 1171.5625 59"  stroke-linejoin="round" visibility="visible" stroke-opacity="0.0001" stroke="rgb(192,192,192)" stroke-width="22" style=""></path></g><g visibility="visible"  transform="translate(67,40)" clip-path="url(#highcharts-8)"><path fill="none" d="M 67.4375 273.3 L 77.4375 273.3 L 232.3125 271.1 L 387.1875 269 L 542.0625 266.8 L 696.9375 266.8 L 851.8125 255.8 L 1006.6875 196.8 L 1161.5625 78.7 L 1171.5625 78.7"  stroke-linejoin="round" visibility="visible" stroke-opacity="0.0001" stroke="rgb(192,192,192)" stroke-width="22" style=""></path></g></g></svg>